<?xml version="1.0" encoding="UTF-8"?>
<svg version="1.1" xmlns="http://www.w3.org/2000/svg" width="100" height="100">
<path d="M0 0 C10.60612406 7.19371893 17.01562678 17.22982513 19.99609375 29.6484375 C20.45215727 34.89316803 20.63122463 39.50712426 19.24609375 44.5859375 C18.08892065 48.9105552 17.04702833 53.03049683 19.0859375 57.26953125 C21.7674506 61.32340122 25.15402902 64.32740623 28.859375 67.42578125 C32.42496871 70.55953546 35.71880348 73.95268165 39.03344727 77.34838867 C41.12855103 79.47878568 43.13114209 81.4435461 45.58984375 83.15234375 C46.13640625 83.60480469 46.68296875 84.05726562 47.24609375 84.5234375 C47.49609375 88.2109375 47.49609375 88.2109375 47.24609375 91.5234375 C42.79959417 91.08308368 40.18832971 88.02634984 37.12109375 85.0859375 C36.5477832 84.54751221 35.97447266 84.00908691 35.38378906 83.4543457 C31.84548469 80.11244971 28.40553728 76.68450849 24.99609375 73.2109375 C17.67271777 65.03278362 17.67271777 65.03278362 7.99609375 61.4609375 C5.31524904 62.45440935 5.31524904 62.45440935 3.08203125 63.56640625 C-5.54616609 66.47812574 -17.0784719 65.41657173 -25.3359375 61.84375 C-37.23360804 55.34712215 -45.89789755 45.16279134 -50.5 32.46484375 C-52.99719564 23.90549042 -52.59564844 14.6052296 -48.75390625 6.5234375 C-36.72807361 -11.08680478 -16.82728184 -10.76315999 0 0 Z M-26.75390625 -1.4765625 C-26.42390625 -0.4865625 -26.09390625 0.5034375 -25.75390625 1.5234375 C-24.76390625 1.1934375 -23.77390625 0.8634375 -22.75390625 0.5234375 C-22.75390625 -0.1365625 -22.75390625 -0.7965625 -22.75390625 -1.4765625 C-24.07390625 -1.4765625 -25.39390625 -1.4765625 -26.75390625 -1.4765625 Z M-18.75390625 -0.4765625 C-18.42390625 0.1834375 -18.09390625 0.8434375 -17.75390625 1.5234375 C-16.76390625 1.1934375 -15.77390625 0.8634375 -14.75390625 0.5234375 C-16.07390625 0.1934375 -17.39390625 -0.1365625 -18.75390625 -0.4765625 Z M-29.75390625 1.5234375 C-29.75390625 2.8434375 -29.75390625 4.1634375 -29.75390625 5.5234375 C-28.76390625 5.1934375 -27.77390625 4.8634375 -26.75390625 4.5234375 C-27.08390625 3.5334375 -27.41390625 2.5434375 -27.75390625 1.5234375 C-28.41390625 1.5234375 -29.07390625 1.5234375 -29.75390625 1.5234375 Z M-21.75390625 1.5234375 C-21.75390625 2.8434375 -21.75390625 4.1634375 -21.75390625 5.5234375 C-20.76390625 5.1934375 -19.77390625 4.8634375 -18.75390625 4.5234375 C-19.08390625 3.5334375 -19.41390625 2.5434375 -19.75390625 1.5234375 C-20.41390625 1.5234375 -21.07390625 1.5234375 -21.75390625 1.5234375 Z M-13.75390625 1.5234375 C-13.75390625 2.8434375 -13.75390625 4.1634375 -13.75390625 5.5234375 C-12.76390625 5.1934375 -11.77390625 4.8634375 -10.75390625 4.5234375 C-11.08390625 3.5334375 -11.41390625 2.5434375 -11.75390625 1.5234375 C-12.41390625 1.5234375 -13.07390625 1.5234375 -13.75390625 1.5234375 Z M-36.75390625 2.5234375 C-37.08390625 3.5134375 -37.41390625 4.5034375 -37.75390625 5.5234375 C-36.76390625 5.1934375 -35.77390625 4.8634375 -34.75390625 4.5234375 C-34.75390625 3.8634375 -34.75390625 3.2034375 -34.75390625 2.5234375 C-35.41390625 2.5234375 -36.07390625 2.5234375 -36.75390625 2.5234375 Z M-33.75390625 5.5234375 C-33.75390625 6.8434375 -33.75390625 8.1634375 -33.75390625 9.5234375 C-32.76390625 9.1934375 -31.77390625 8.8634375 -30.75390625 8.5234375 C-31.08390625 7.5334375 -31.41390625 6.5434375 -31.75390625 5.5234375 C-32.41390625 5.5234375 -33.07390625 5.5234375 -33.75390625 5.5234375 Z M-25.75390625 5.5234375 C-25.75390625 6.8434375 -25.75390625 8.1634375 -25.75390625 9.5234375 C-24.76390625 9.1934375 -23.77390625 8.8634375 -22.75390625 8.5234375 C-23.08390625 7.5334375 -23.41390625 6.5434375 -23.75390625 5.5234375 C-24.41390625 5.5234375 -25.07390625 5.5234375 -25.75390625 5.5234375 Z M-17.75390625 5.5234375 C-17.75390625 6.8434375 -17.75390625 8.1634375 -17.75390625 9.5234375 C-16.76390625 9.1934375 -15.77390625 8.8634375 -14.75390625 8.5234375 C-15.08390625 7.5334375 -15.41390625 6.5434375 -15.75390625 5.5234375 C-16.41390625 5.5234375 -17.07390625 5.5234375 -17.75390625 5.5234375 Z M-9.75390625 5.5234375 C-9.75390625 6.8434375 -9.75390625 8.1634375 -9.75390625 9.5234375 C-8.76390625 9.1934375 -7.77390625 8.8634375 -6.75390625 8.5234375 C-7.08390625 7.5334375 -7.41390625 6.5434375 -7.75390625 5.5234375 C-8.41390625 5.5234375 -9.07390625 5.5234375 -9.75390625 5.5234375 Z M-40.75390625 6.5234375 C-41.08390625 7.5134375 -41.41390625 8.5034375 -41.75390625 9.5234375 C-40.76390625 9.1934375 -39.77390625 8.8634375 -38.75390625 8.5234375 C-38.75390625 7.8634375 -38.75390625 7.2034375 -38.75390625 6.5234375 C-39.41390625 6.5234375 -40.07390625 6.5234375 -40.75390625 6.5234375 Z M-2.75390625 6.5234375 C-2.42390625 7.5134375 -2.09390625 8.5034375 -1.75390625 9.5234375 C-1.09390625 9.5234375 -0.43390625 9.5234375 0.24609375 9.5234375 C0.24609375 8.8634375 0.24609375 8.2034375 0.24609375 7.5234375 C-0.74390625 7.1934375 -1.73390625 6.8634375 -2.75390625 6.5234375 Z M-37.75390625 9.5234375 C-37.75390625 10.8434375 -37.75390625 12.1634375 -37.75390625 13.5234375 C-36.76390625 13.1934375 -35.77390625 12.8634375 -34.75390625 12.5234375 C-35.08390625 11.5334375 -35.41390625 10.5434375 -35.75390625 9.5234375 C-36.41390625 9.5234375 -37.07390625 9.5234375 -37.75390625 9.5234375 Z M-29.75390625 9.5234375 C-29.75390625 10.8434375 -29.75390625 12.1634375 -29.75390625 13.5234375 C-28.76390625 13.1934375 -27.77390625 12.8634375 -26.75390625 12.5234375 C-27.08390625 11.5334375 -27.41390625 10.5434375 -27.75390625 9.5234375 C-28.41390625 9.5234375 -29.07390625 9.5234375 -29.75390625 9.5234375 Z M-21.75390625 9.5234375 C-21.75390625 10.8434375 -21.75390625 12.1634375 -21.75390625 13.5234375 C-20.76390625 13.1934375 -19.77390625 12.8634375 -18.75390625 12.5234375 C-19.08390625 11.5334375 -19.41390625 10.5434375 -19.75390625 9.5234375 C-20.41390625 9.5234375 -21.07390625 9.5234375 -21.75390625 9.5234375 Z M-13.75390625 9.5234375 C-13.75390625 10.8434375 -13.75390625 12.1634375 -13.75390625 13.5234375 C-12.76390625 13.1934375 -11.77390625 12.8634375 -10.75390625 12.5234375 C-11.08390625 11.5334375 -11.41390625 10.5434375 -11.75390625 9.5234375 C-12.41390625 9.5234375 -13.07390625 9.5234375 -13.75390625 9.5234375 Z M-5.75390625 9.5234375 C-5.75390625 10.8434375 -5.75390625 12.1634375 -5.75390625 13.5234375 C-4.76390625 13.1934375 -3.77390625 12.8634375 -2.75390625 12.5234375 C-3.08390625 11.5334375 -3.41390625 10.5434375 -3.75390625 9.5234375 C-4.41390625 9.5234375 -5.07390625 9.5234375 -5.75390625 9.5234375 Z M-43.75390625 10.5234375 C-42.75390625 12.5234375 -42.75390625 12.5234375 -42.75390625 12.5234375 Z M1.24609375 10.5234375 C1.57609375 11.5134375 1.90609375 12.5034375 2.24609375 13.5234375 C2.90609375 13.5234375 3.56609375 13.5234375 4.24609375 13.5234375 C3.91609375 12.5334375 3.58609375 11.5434375 3.24609375 10.5234375 C2.58609375 10.5234375 1.92609375 10.5234375 1.24609375 10.5234375 Z M-41.75390625 13.5234375 C-41.75390625 14.8434375 -41.75390625 16.1634375 -41.75390625 17.5234375 C-40.76390625 17.1934375 -39.77390625 16.8634375 -38.75390625 16.5234375 C-39.08390625 15.5334375 -39.41390625 14.5434375 -39.75390625 13.5234375 C-40.41390625 13.5234375 -41.07390625 13.5234375 -41.75390625 13.5234375 Z M-33.75390625 13.5234375 C-33.75390625 14.8434375 -33.75390625 16.1634375 -33.75390625 17.5234375 C-32.76390625 17.1934375 -31.77390625 16.8634375 -30.75390625 16.5234375 C-31.08390625 15.5334375 -31.41390625 14.5434375 -31.75390625 13.5234375 C-32.41390625 13.5234375 -33.07390625 13.5234375 -33.75390625 13.5234375 Z M-25.75390625 13.5234375 C-25.75390625 14.8434375 -25.75390625 16.1634375 -25.75390625 17.5234375 C-24.76390625 17.1934375 -23.77390625 16.8634375 -22.75390625 16.5234375 C-23.08390625 15.5334375 -23.41390625 14.5434375 -23.75390625 13.5234375 C-24.41390625 13.5234375 -25.07390625 13.5234375 -25.75390625 13.5234375 Z M-17.75390625 13.5234375 C-17.75390625 14.8434375 -17.75390625 16.1634375 -17.75390625 17.5234375 C-16.76390625 17.1934375 -15.77390625 16.8634375 -14.75390625 16.5234375 C-15.08390625 15.5334375 -15.41390625 14.5434375 -15.75390625 13.5234375 C-16.41390625 13.5234375 -17.07390625 13.5234375 -17.75390625 13.5234375 Z M-9.75390625 13.5234375 C-9.75390625 14.8434375 -9.75390625 16.1634375 -9.75390625 17.5234375 C-8.76390625 17.1934375 -7.77390625 16.8634375 -6.75390625 16.5234375 C-7.08390625 15.5334375 -7.41390625 14.5434375 -7.75390625 13.5234375 C-8.41390625 13.5234375 -9.07390625 13.5234375 -9.75390625 13.5234375 Z M-1.75390625 13.5234375 C-1.75390625 14.8434375 -1.75390625 16.1634375 -1.75390625 17.5234375 C-0.76390625 17.1934375 0.22609375 16.8634375 1.24609375 16.5234375 C0.91609375 15.5334375 0.58609375 14.5434375 0.24609375 13.5234375 C-0.41390625 13.5234375 -1.07390625 13.5234375 -1.75390625 13.5234375 Z M5.24609375 14.5234375 C5.57609375 15.5134375 5.90609375 16.5034375 6.24609375 17.5234375 C6.24609375 16.5334375 6.24609375 15.5434375 6.24609375 14.5234375 C5.91609375 14.5234375 5.58609375 14.5234375 5.24609375 14.5234375 Z M-45.75390625 17.5234375 C-45.75390625 18.8434375 -45.75390625 20.1634375 -45.75390625 21.5234375 C-44.76390625 21.1934375 -43.77390625 20.8634375 -42.75390625 20.5234375 C-43.08390625 19.5334375 -43.41390625 18.5434375 -43.75390625 17.5234375 C-44.41390625 17.5234375 -45.07390625 17.5234375 -45.75390625 17.5234375 Z M-37.75390625 17.5234375 C-37.75390625 18.8434375 -37.75390625 20.1634375 -37.75390625 21.5234375 C-36.76390625 21.1934375 -35.77390625 20.8634375 -34.75390625 20.5234375 C-35.08390625 19.5334375 -35.41390625 18.5434375 -35.75390625 17.5234375 C-36.41390625 17.5234375 -37.07390625 17.5234375 -37.75390625 17.5234375 Z M-29.75390625 17.5234375 C-29.75390625 18.8434375 -29.75390625 20.1634375 -29.75390625 21.5234375 C-28.76390625 21.1934375 -27.77390625 20.8634375 -26.75390625 20.5234375 C-27.08390625 19.5334375 -27.41390625 18.5434375 -27.75390625 17.5234375 C-28.41390625 17.5234375 -29.07390625 17.5234375 -29.75390625 17.5234375 Z M-21.75390625 17.5234375 C-21.75390625 18.8434375 -21.75390625 20.1634375 -21.75390625 21.5234375 C-20.76390625 21.1934375 -19.77390625 20.8634375 -18.75390625 20.5234375 C-19.08390625 19.5334375 -19.41390625 18.5434375 -19.75390625 17.5234375 C-20.41390625 17.5234375 -21.07390625 17.5234375 -21.75390625 17.5234375 Z M-13.75390625 17.5234375 C-13.75390625 18.8434375 -13.75390625 20.1634375 -13.75390625 21.5234375 C-12.76390625 21.1934375 -11.77390625 20.8634375 -10.75390625 20.5234375 C-11.08390625 19.5334375 -11.41390625 18.5434375 -11.75390625 17.5234375 C-12.41390625 17.5234375 -13.07390625 17.5234375 -13.75390625 17.5234375 Z M-5.75390625 17.5234375 C-5.75390625 18.8434375 -5.75390625 20.1634375 -5.75390625 21.5234375 C-4.76390625 21.1934375 -3.77390625 20.8634375 -2.75390625 20.5234375 C-3.08390625 19.5334375 -3.41390625 18.5434375 -3.75390625 17.5234375 C-4.41390625 17.5234375 -5.07390625 17.5234375 -5.75390625 17.5234375 Z M2.24609375 17.5234375 C2.24609375 18.8434375 2.24609375 20.1634375 2.24609375 21.5234375 C3.23609375 21.1934375 4.22609375 20.8634375 5.24609375 20.5234375 C4.91609375 19.5334375 4.58609375 18.5434375 4.24609375 17.5234375 C3.58609375 17.5234375 2.92609375 17.5234375 2.24609375 17.5234375 Z M-41.75390625 21.5234375 C-41.75390625 22.8434375 -41.75390625 24.1634375 -41.75390625 25.5234375 C-40.76390625 25.1934375 -39.77390625 24.8634375 -38.75390625 24.5234375 C-39.08390625 23.5334375 -39.41390625 22.5434375 -39.75390625 21.5234375 C-40.41390625 21.5234375 -41.07390625 21.5234375 -41.75390625 21.5234375 Z M-33.75390625 21.5234375 C-33.75390625 22.8434375 -33.75390625 24.1634375 -33.75390625 25.5234375 C-32.76390625 25.1934375 -31.77390625 24.8634375 -30.75390625 24.5234375 C-31.08390625 23.5334375 -31.41390625 22.5434375 -31.75390625 21.5234375 C-32.41390625 21.5234375 -33.07390625 21.5234375 -33.75390625 21.5234375 Z M-25.75390625 21.5234375 C-25.75390625 22.8434375 -25.75390625 24.1634375 -25.75390625 25.5234375 C-24.76390625 25.1934375 -23.77390625 24.8634375 -22.75390625 24.5234375 C-23.08390625 23.5334375 -23.41390625 22.5434375 -23.75390625 21.5234375 C-24.41390625 21.5234375 -25.07390625 21.5234375 -25.75390625 21.5234375 Z M-17.75390625 21.5234375 C-17.75390625 22.8434375 -17.75390625 24.1634375 -17.75390625 25.5234375 C-16.76390625 25.1934375 -15.77390625 24.8634375 -14.75390625 24.5234375 C-15.08390625 23.5334375 -15.41390625 22.5434375 -15.75390625 21.5234375 C-16.41390625 21.5234375 -17.07390625 21.5234375 -17.75390625 21.5234375 Z M-9.75390625 21.5234375 C-9.75390625 22.8434375 -9.75390625 24.1634375 -9.75390625 25.5234375 C-8.76390625 25.1934375 -7.77390625 24.8634375 -6.75390625 24.5234375 C-7.08390625 23.5334375 -7.41390625 22.5434375 -7.75390625 21.5234375 C-8.41390625 21.5234375 -9.07390625 21.5234375 -9.75390625 21.5234375 Z M-1.75390625 21.5234375 C-1.75390625 22.8434375 -1.75390625 24.1634375 -1.75390625 25.5234375 C-0.76390625 25.1934375 0.22609375 24.8634375 1.24609375 24.5234375 C0.91609375 23.5334375 0.58609375 22.5434375 0.24609375 21.5234375 C-0.41390625 21.5234375 -1.07390625 21.5234375 -1.75390625 21.5234375 Z M6.24609375 21.5234375 C6.24609375 22.8434375 6.24609375 24.1634375 6.24609375 25.5234375 C7.23609375 25.1934375 8.22609375 24.8634375 9.24609375 24.5234375 C8.91609375 23.5334375 8.58609375 22.5434375 8.24609375 21.5234375 C7.58609375 21.5234375 6.92609375 21.5234375 6.24609375 21.5234375 Z M-44.75390625 25.5234375 C-44.42390625 26.8434375 -44.09390625 28.1634375 -43.75390625 29.5234375 C-43.75390625 28.2034375 -43.75390625 26.8834375 -43.75390625 25.5234375 C-44.08390625 25.5234375 -44.41390625 25.5234375 -44.75390625 25.5234375 Z M-37.75390625 25.5234375 C-37.75390625 26.8434375 -37.75390625 28.1634375 -37.75390625 29.5234375 C-36.76390625 29.1934375 -35.77390625 28.8634375 -34.75390625 28.5234375 C-35.08390625 27.5334375 -35.41390625 26.5434375 -35.75390625 25.5234375 C-36.41390625 25.5234375 -37.07390625 25.5234375 -37.75390625 25.5234375 Z M-29.75390625 25.5234375 C-29.75390625 26.8434375 -29.75390625 28.1634375 -29.75390625 29.5234375 C-28.76390625 29.1934375 -27.77390625 28.8634375 -26.75390625 28.5234375 C-27.08390625 27.5334375 -27.41390625 26.5434375 -27.75390625 25.5234375 C-28.41390625 25.5234375 -29.07390625 25.5234375 -29.75390625 25.5234375 Z M-21.75390625 25.5234375 C-21.75390625 26.8434375 -21.75390625 28.1634375 -21.75390625 29.5234375 C-20.76390625 29.1934375 -19.77390625 28.8634375 -18.75390625 28.5234375 C-19.08390625 27.5334375 -19.41390625 26.5434375 -19.75390625 25.5234375 C-20.41390625 25.5234375 -21.07390625 25.5234375 -21.75390625 25.5234375 Z M-13.75390625 25.5234375 C-13.75390625 26.8434375 -13.75390625 28.1634375 -13.75390625 29.5234375 C-12.76390625 29.1934375 -11.77390625 28.8634375 -10.75390625 28.5234375 C-11.08390625 27.5334375 -11.41390625 26.5434375 -11.75390625 25.5234375 C-12.41390625 25.5234375 -13.07390625 25.5234375 -13.75390625 25.5234375 Z M-5.75390625 25.5234375 C-5.75390625 26.8434375 -5.75390625 28.1634375 -5.75390625 29.5234375 C-4.76390625 29.1934375 -3.77390625 28.8634375 -2.75390625 28.5234375 C-3.08390625 27.5334375 -3.41390625 26.5434375 -3.75390625 25.5234375 C-4.41390625 25.5234375 -5.07390625 25.5234375 -5.75390625 25.5234375 Z M2.24609375 25.5234375 C2.24609375 26.8434375 2.24609375 28.1634375 2.24609375 29.5234375 C3.23609375 29.1934375 4.22609375 28.8634375 5.24609375 28.5234375 C4.91609375 27.5334375 4.58609375 26.5434375 4.24609375 25.5234375 C3.58609375 25.5234375 2.92609375 25.5234375 2.24609375 25.5234375 Z M10.24609375 25.5234375 C10.24609375 26.8434375 10.24609375 28.1634375 10.24609375 29.5234375 C10.90609375 29.5234375 11.56609375 29.5234375 12.24609375 29.5234375 C12.24609375 28.2034375 12.24609375 26.8834375 12.24609375 25.5234375 C11.58609375 25.5234375 10.92609375 25.5234375 10.24609375 25.5234375 Z M-41.75390625 29.5234375 C-41.75390625 30.8434375 -41.75390625 32.1634375 -41.75390625 33.5234375 C-40.76390625 33.1934375 -39.77390625 32.8634375 -38.75390625 32.5234375 C-39.08390625 31.5334375 -39.41390625 30.5434375 -39.75390625 29.5234375 C-40.41390625 29.5234375 -41.07390625 29.5234375 -41.75390625 29.5234375 Z M-33.75390625 29.5234375 C-33.75390625 30.8434375 -33.75390625 32.1634375 -33.75390625 33.5234375 C-32.76390625 33.1934375 -31.77390625 32.8634375 -30.75390625 32.5234375 C-31.08390625 31.5334375 -31.41390625 30.5434375 -31.75390625 29.5234375 C-32.41390625 29.5234375 -33.07390625 29.5234375 -33.75390625 29.5234375 Z M-25.75390625 29.5234375 C-25.75390625 30.8434375 -25.75390625 32.1634375 -25.75390625 33.5234375 C-24.76390625 33.1934375 -23.77390625 32.8634375 -22.75390625 32.5234375 C-23.08390625 31.5334375 -23.41390625 30.5434375 -23.75390625 29.5234375 C-24.41390625 29.5234375 -25.07390625 29.5234375 -25.75390625 29.5234375 Z M-17.75390625 29.5234375 C-17.75390625 30.8434375 -17.75390625 32.1634375 -17.75390625 33.5234375 C-16.76390625 33.1934375 -15.77390625 32.8634375 -14.75390625 32.5234375 C-15.08390625 31.5334375 -15.41390625 30.5434375 -15.75390625 29.5234375 C-16.41390625 29.5234375 -17.07390625 29.5234375 -17.75390625 29.5234375 Z M-9.75390625 29.5234375 C-9.75390625 30.8434375 -9.75390625 32.1634375 -9.75390625 33.5234375 C-8.76390625 33.1934375 -7.77390625 32.8634375 -6.75390625 32.5234375 C-7.08390625 31.5334375 -7.41390625 30.5434375 -7.75390625 29.5234375 C-8.41390625 29.5234375 -9.07390625 29.5234375 -9.75390625 29.5234375 Z M-1.75390625 29.5234375 C-1.75390625 30.8434375 -1.75390625 32.1634375 -1.75390625 33.5234375 C-0.76390625 33.1934375 0.22609375 32.8634375 1.24609375 32.5234375 C0.91609375 31.5334375 0.58609375 30.5434375 0.24609375 29.5234375 C-0.41390625 29.5234375 -1.07390625 29.5234375 -1.75390625 29.5234375 Z M6.24609375 29.5234375 C6.24609375 30.8434375 6.24609375 32.1634375 6.24609375 33.5234375 C7.23609375 33.1934375 8.22609375 32.8634375 9.24609375 32.5234375 C8.91609375 31.5334375 8.58609375 30.5434375 8.24609375 29.5234375 C7.58609375 29.5234375 6.92609375 29.5234375 6.24609375 29.5234375 Z M-37.75390625 33.5234375 C-37.75390625 34.8434375 -37.75390625 36.1634375 -37.75390625 37.5234375 C-36.76390625 37.1934375 -35.77390625 36.8634375 -34.75390625 36.5234375 C-35.08390625 35.5334375 -35.41390625 34.5434375 -35.75390625 33.5234375 C-36.41390625 33.5234375 -37.07390625 33.5234375 -37.75390625 33.5234375 Z M-29.75390625 33.5234375 C-29.75390625 34.8434375 -29.75390625 36.1634375 -29.75390625 37.5234375 C-28.76390625 37.1934375 -27.77390625 36.8634375 -26.75390625 36.5234375 C-27.08390625 35.5334375 -27.41390625 34.5434375 -27.75390625 33.5234375 C-28.41390625 33.5234375 -29.07390625 33.5234375 -29.75390625 33.5234375 Z M-21.75390625 33.5234375 C-21.75390625 34.8434375 -21.75390625 36.1634375 -21.75390625 37.5234375 C-20.76390625 37.1934375 -19.77390625 36.8634375 -18.75390625 36.5234375 C-19.08390625 35.5334375 -19.41390625 34.5434375 -19.75390625 33.5234375 C-20.41390625 33.5234375 -21.07390625 33.5234375 -21.75390625 33.5234375 Z M-13.75390625 33.5234375 C-13.75390625 34.8434375 -13.75390625 36.1634375 -13.75390625 37.5234375 C-12.76390625 37.1934375 -11.77390625 36.8634375 -10.75390625 36.5234375 C-11.08390625 35.5334375 -11.41390625 34.5434375 -11.75390625 33.5234375 C-12.41390625 33.5234375 -13.07390625 33.5234375 -13.75390625 33.5234375 Z M-5.75390625 33.5234375 C-5.75390625 34.8434375 -5.75390625 36.1634375 -5.75390625 37.5234375 C-4.76390625 37.1934375 -3.77390625 36.8634375 -2.75390625 36.5234375 C-3.08390625 35.5334375 -3.41390625 34.5434375 -3.75390625 33.5234375 C-4.41390625 33.5234375 -5.07390625 33.5234375 -5.75390625 33.5234375 Z M2.24609375 33.5234375 C2.24609375 34.8434375 2.24609375 36.1634375 2.24609375 37.5234375 C3.23609375 37.1934375 4.22609375 36.8634375 5.24609375 36.5234375 C4.91609375 35.5334375 4.58609375 34.5434375 4.24609375 33.5234375 C3.58609375 33.5234375 2.92609375 33.5234375 2.24609375 33.5234375 Z M10.24609375 33.5234375 C10.24609375 34.8434375 10.24609375 36.1634375 10.24609375 37.5234375 C11.23609375 37.1934375 12.22609375 36.8634375 13.24609375 36.5234375 C12.91609375 35.5334375 12.58609375 34.5434375 12.24609375 33.5234375 C11.58609375 33.5234375 10.92609375 33.5234375 10.24609375 33.5234375 Z M-40.75390625 37.5234375 C-40.42390625 38.5134375 -40.09390625 39.5034375 -39.75390625 40.5234375 C-39.75390625 39.5334375 -39.75390625 38.5434375 -39.75390625 37.5234375 C-40.08390625 37.5234375 -40.41390625 37.5234375 -40.75390625 37.5234375 Z M-33.75390625 37.5234375 C-33.75390625 38.8434375 -33.75390625 40.1634375 -33.75390625 41.5234375 C-32.76390625 41.1934375 -31.77390625 40.8634375 -30.75390625 40.5234375 C-31.08390625 39.5334375 -31.41390625 38.5434375 -31.75390625 37.5234375 C-32.41390625 37.5234375 -33.07390625 37.5234375 -33.75390625 37.5234375 Z M-25.75390625 37.5234375 C-25.75390625 38.8434375 -25.75390625 40.1634375 -25.75390625 41.5234375 C-24.76390625 41.1934375 -23.77390625 40.8634375 -22.75390625 40.5234375 C-23.08390625 39.5334375 -23.41390625 38.5434375 -23.75390625 37.5234375 C-24.41390625 37.5234375 -25.07390625 37.5234375 -25.75390625 37.5234375 Z M-17.75390625 37.5234375 C-17.75390625 38.8434375 -17.75390625 40.1634375 -17.75390625 41.5234375 C-16.76390625 41.1934375 -15.77390625 40.8634375 -14.75390625 40.5234375 C-15.08390625 39.5334375 -15.41390625 38.5434375 -15.75390625 37.5234375 C-16.41390625 37.5234375 -17.07390625 37.5234375 -17.75390625 37.5234375 Z M-9.75390625 37.5234375 C-9.75390625 38.8434375 -9.75390625 40.1634375 -9.75390625 41.5234375 C-8.76390625 41.1934375 -7.77390625 40.8634375 -6.75390625 40.5234375 C-7.08390625 39.5334375 -7.41390625 38.5434375 -7.75390625 37.5234375 C-8.41390625 37.5234375 -9.07390625 37.5234375 -9.75390625 37.5234375 Z M-1.75390625 37.5234375 C-1.75390625 38.8434375 -1.75390625 40.1634375 -1.75390625 41.5234375 C-0.76390625 41.1934375 0.22609375 40.8634375 1.24609375 40.5234375 C0.91609375 39.5334375 0.58609375 38.5434375 0.24609375 37.5234375 C-0.41390625 37.5234375 -1.07390625 37.5234375 -1.75390625 37.5234375 Z M6.24609375 37.5234375 C6.24609375 38.8434375 6.24609375 40.1634375 6.24609375 41.5234375 C7.23609375 41.1934375 8.22609375 40.8634375 9.24609375 40.5234375 C8.91609375 39.5334375 8.58609375 38.5434375 8.24609375 37.5234375 C7.58609375 37.5234375 6.92609375 37.5234375 6.24609375 37.5234375 Z M-37.75390625 41.5234375 C-37.42390625 42.5134375 -37.09390625 43.5034375 -36.75390625 44.5234375 C-36.09390625 44.5234375 -35.43390625 44.5234375 -34.75390625 44.5234375 C-35.08390625 43.5334375 -35.41390625 42.5434375 -35.75390625 41.5234375 C-36.41390625 41.5234375 -37.07390625 41.5234375 -37.75390625 41.5234375 Z M-29.75390625 41.5234375 C-29.75390625 42.8434375 -29.75390625 44.1634375 -29.75390625 45.5234375 C-28.76390625 45.1934375 -27.77390625 44.8634375 -26.75390625 44.5234375 C-27.08390625 43.5334375 -27.41390625 42.5434375 -27.75390625 41.5234375 C-28.41390625 41.5234375 -29.07390625 41.5234375 -29.75390625 41.5234375 Z M-21.75390625 41.5234375 C-21.75390625 42.8434375 -21.75390625 44.1634375 -21.75390625 45.5234375 C-20.76390625 45.1934375 -19.77390625 44.8634375 -18.75390625 44.5234375 C-19.08390625 43.5334375 -19.41390625 42.5434375 -19.75390625 41.5234375 C-20.41390625 41.5234375 -21.07390625 41.5234375 -21.75390625 41.5234375 Z M-13.75390625 41.5234375 C-13.75390625 42.8434375 -13.75390625 44.1634375 -13.75390625 45.5234375 C-12.76390625 45.1934375 -11.77390625 44.8634375 -10.75390625 44.5234375 C-11.08390625 43.5334375 -11.41390625 42.5434375 -11.75390625 41.5234375 C-12.41390625 41.5234375 -13.07390625 41.5234375 -13.75390625 41.5234375 Z M-5.75390625 41.5234375 C-5.75390625 42.8434375 -5.75390625 44.1634375 -5.75390625 45.5234375 C-4.76390625 45.1934375 -3.77390625 44.8634375 -2.75390625 44.5234375 C-3.08390625 43.5334375 -3.41390625 42.5434375 -3.75390625 41.5234375 C-4.41390625 41.5234375 -5.07390625 41.5234375 -5.75390625 41.5234375 Z M2.24609375 41.5234375 C2.24609375 42.8434375 2.24609375 44.1634375 2.24609375 45.5234375 C3.23609375 45.1934375 4.22609375 44.8634375 5.24609375 44.5234375 C4.91609375 43.5334375 4.58609375 42.5434375 4.24609375 41.5234375 C3.58609375 41.5234375 2.92609375 41.5234375 2.24609375 41.5234375 Z M10.24609375 41.5234375 C10.24609375 42.8434375 10.24609375 44.1634375 10.24609375 45.5234375 C10.90609375 45.5234375 11.56609375 45.5234375 12.24609375 45.5234375 C12.57609375 44.5334375 12.90609375 43.5434375 13.24609375 42.5234375 C12.25609375 42.1934375 11.26609375 41.8634375 10.24609375 41.5234375 Z M-33.75390625 45.5234375 C-33.42390625 46.5134375 -33.09390625 47.5034375 -32.75390625 48.5234375 C-32.09390625 48.5234375 -31.43390625 48.5234375 -30.75390625 48.5234375 C-31.08390625 47.5334375 -31.41390625 46.5434375 -31.75390625 45.5234375 C-32.41390625 45.5234375 -33.07390625 45.5234375 -33.75390625 45.5234375 Z M-25.75390625 45.5234375 C-25.75390625 46.8434375 -25.75390625 48.1634375 -25.75390625 49.5234375 C-24.76390625 49.1934375 -23.77390625 48.8634375 -22.75390625 48.5234375 C-23.08390625 47.5334375 -23.41390625 46.5434375 -23.75390625 45.5234375 C-24.41390625 45.5234375 -25.07390625 45.5234375 -25.75390625 45.5234375 Z M-17.75390625 45.5234375 C-17.75390625 46.8434375 -17.75390625 48.1634375 -17.75390625 49.5234375 C-16.76390625 49.1934375 -15.77390625 48.8634375 -14.75390625 48.5234375 C-15.08390625 47.5334375 -15.41390625 46.5434375 -15.75390625 45.5234375 C-16.41390625 45.5234375 -17.07390625 45.5234375 -17.75390625 45.5234375 Z M-9.75390625 45.5234375 C-9.75390625 46.8434375 -9.75390625 48.1634375 -9.75390625 49.5234375 C-8.76390625 49.1934375 -7.77390625 48.8634375 -6.75390625 48.5234375 C-7.08390625 47.5334375 -7.41390625 46.5434375 -7.75390625 45.5234375 C-8.41390625 45.5234375 -9.07390625 45.5234375 -9.75390625 45.5234375 Z M-1.75390625 45.5234375 C-1.75390625 46.8434375 -1.75390625 48.1634375 -1.75390625 49.5234375 C-0.76390625 49.1934375 0.22609375 48.8634375 1.24609375 48.5234375 C0.91609375 47.5334375 0.58609375 46.5434375 0.24609375 45.5234375 C-0.41390625 45.5234375 -1.07390625 45.5234375 -1.75390625 45.5234375 Z M6.24609375 45.5234375 C6.24609375 46.8434375 6.24609375 48.1634375 6.24609375 49.5234375 C7.23609375 49.1934375 8.22609375 48.8634375 9.24609375 48.5234375 C8.91609375 47.5334375 8.58609375 46.5434375 8.24609375 45.5234375 C7.58609375 45.5234375 6.92609375 45.5234375 6.24609375 45.5234375 Z M-29.75390625 49.5234375 C-29.42390625 50.5134375 -29.09390625 51.5034375 -28.75390625 52.5234375 C-28.09390625 52.5234375 -27.43390625 52.5234375 -26.75390625 52.5234375 C-27.08390625 51.5334375 -27.41390625 50.5434375 -27.75390625 49.5234375 C-28.41390625 49.5234375 -29.07390625 49.5234375 -29.75390625 49.5234375 Z M-21.75390625 49.5234375 C-21.75390625 50.8434375 -21.75390625 52.1634375 -21.75390625 53.5234375 C-20.76390625 53.1934375 -19.77390625 52.8634375 -18.75390625 52.5234375 C-19.08390625 51.5334375 -19.41390625 50.5434375 -19.75390625 49.5234375 C-20.41390625 49.5234375 -21.07390625 49.5234375 -21.75390625 49.5234375 Z M-13.75390625 49.5234375 C-13.75390625 50.8434375 -13.75390625 52.1634375 -13.75390625 53.5234375 C-12.76390625 53.1934375 -11.77390625 52.8634375 -10.75390625 52.5234375 C-11.08390625 51.5334375 -11.41390625 50.5434375 -11.75390625 49.5234375 C-12.41390625 49.5234375 -13.07390625 49.5234375 -13.75390625 49.5234375 Z M-5.75390625 49.5234375 C-5.75390625 50.8434375 -5.75390625 52.1634375 -5.75390625 53.5234375 C-4.76390625 53.1934375 -3.77390625 52.8634375 -2.75390625 52.5234375 C-3.08390625 51.5334375 -3.41390625 50.5434375 -3.75390625 49.5234375 C-4.41390625 49.5234375 -5.07390625 49.5234375 -5.75390625 49.5234375 Z M2.24609375 49.5234375 C2.24609375 50.8434375 2.24609375 52.1634375 2.24609375 53.5234375 C3.23609375 53.1934375 4.22609375 52.8634375 5.24609375 52.5234375 C4.91609375 51.5334375 4.58609375 50.5434375 4.24609375 49.5234375 C3.58609375 49.5234375 2.92609375 49.5234375 2.24609375 49.5234375 Z M-17.75390625 53.5234375 C-17.75390625 54.8434375 -17.75390625 56.1634375 -17.75390625 57.5234375 C-16.76390625 57.1934375 -15.77390625 56.8634375 -14.75390625 56.5234375 C-15.08390625 55.5334375 -15.41390625 54.5434375 -15.75390625 53.5234375 C-16.41390625 53.5234375 -17.07390625 53.5234375 -17.75390625 53.5234375 Z M-9.75390625 53.5234375 C-9.75390625 54.8434375 -9.75390625 56.1634375 -9.75390625 57.5234375 C-8.76390625 57.1934375 -7.77390625 56.8634375 -6.75390625 56.5234375 C-7.08390625 55.5334375 -7.41390625 54.5434375 -7.75390625 53.5234375 C-8.41390625 53.5234375 -9.07390625 53.5234375 -9.75390625 53.5234375 Z M-1.75390625 53.5234375 C-1.75390625 54.8434375 -1.75390625 56.1634375 -1.75390625 57.5234375 C-0.76390625 57.1934375 0.22609375 56.8634375 1.24609375 56.5234375 C0.91609375 55.5334375 0.58609375 54.5434375 0.24609375 53.5234375 C-0.41390625 53.5234375 -1.07390625 53.5234375 -1.75390625 53.5234375 Z " fill="#767676" transform="translate(52.75390625,8.4765625)"/>
<path d="M0 0 C4.875 3.75 4.875 3.75 6 6 C6.66 6 7.32 6 8 6 C8 5.34 8 4.68 8 4 C7.34 3.34 6.68 2.68 6 2 C6.66 2 7.32 2 8 2 C8.33 1.34 8.66 0.68 9 0 C10.11375 1.36125 10.11375 1.36125 11.25 2.75 C13.38513715 5.3024869 15.51715469 7.77400076 18 10 C18.66 10 19.32 10 20 10 C20 9.34 20 8.68 20 8 C19.34 7.34 18.68 6.68 18 6 C18.66 6 19.32 6 20 6 C20.33 5.34 20.66 4.68 21 4 C22.0209375 5.299375 22.0209375 5.299375 23.0625 6.625 C25.56515115 9.64101549 28.32804245 12.12235161 31.3515625 14.60546875 C34.58583861 17.34157437 34.58583861 17.34157437 36 19 C36 19.99 36 20.98 36 22 C35.34 22 34.68 22 34 22 C34 23.32 34 24.64 34 26 C35.97956942 27.69088222 37.97945196 29.35830472 40 31 C40 31.99 40 32.98 40 34 C39.34 34 38.68 34 38 34 C38 34.66 38 35.32 38 36 C37.34 36 36.68 36 36 36 C36 36.66 36 37.32 36 38 C35.34 38 34.68 38 34 38 C34 38.66 34 39.32 34 40 C33.34 40 32.68 40 32 40 C32 40.66 32 41.32 32 42 C31.34 42 30.68 42 30 42 C30 42.66 30 43.32 30 44 C29.34 44 28.68 44 28 44 C28 44.66 28 45.32 28 46 C27.34 46 26.68 46 26 46 C26 47.32 26 48.64 26 50 C27.32 50 28.64 50 30 50 C30 49.34 30 48.68 30 48 C33 48 33 48 34.6875 49.3125 C36 51 36 51 36 54 C34.68 54.66 33.36 55.32 32 56 C32 54.68 32 53.36 32 52 C30.68 52 29.36 52 28 52 C28 52.66 28 53.32 28 54 C27.34 54 26.68 54 26 54 C26 54.66 26 55.32 26 56 C25.34 56 24.68 56 24 56 C24 56.66 24 57.32 24 58 C20.1496895 60.56687367 18.41430237 59.83288724 14 59 C14 58.01 14 57.02 14 56 C14.66 56 15.32 56 16 56 C16 54.68 16 53.36 16 52 C14.68 52 13.36 52 12 52 C12 52.66 12 53.32 12 54 C11.34 54 10.68 54 10 54 C10 54.66 10 55.32 10 56 C9.34 56 8.68 56 8 56 C8 54.68 8 53.36 8 52 C6.68 52 5.36 52 4 52 C4 52.66 4 53.32 4 54 C3.01 54 2.02 54 1 54 C-0.60725635 50.78548731 -0.05748185 47.56387464 0 44 C-1.32 44 -2.64 44 -4 44 C-4 44.66 -4 45.32 -4 46 C-4.66 46 -5.32 46 -6 46 C-6 45.34 -6 44.68 -6 44 C-6.66 44 -7.32 44 -8 44 C-8 41.36 -8 38.72 -8 36 C-9.32 36 -10.64 36 -12 36 C-12 34.68 -12 33.36 -12 32 C-13.32 32 -14.64 32 -16 32 C-16 31.34 -16 30.68 -16 30 C-15.34 30 -14.68 30 -14 30 C-14 29.34 -14 28.68 -14 28 C-13.34 28 -12.68 28 -12 28 C-12 26.68 -12 25.36 -12 24 C-13.32 24 -14.64 24 -16 24 C-16 22.68 -16 21.36 -16 20 C-16.66 19.34 -17.32 18.68 -18 18 C-16.02 18 -14.04 18 -12 18 C-12 16.02 -12 14.04 -12 12 C-10.68 12.66 -9.36 13.32 -8 14 C-8 13.34 -8 12.68 -8 12 C-8.66 11.34 -9.32 10.68 -10 10 C-9.34 10 -8.68 10 -8 10 C-7.67 9.34 -7.34 8.68 -7 8 C-6.67 8.66 -6.34 9.32 -6 10 C-5.34 10 -4.68 10 -4 10 C-4 9.34 -4 8.68 -4 8 C-4.66 7.34 -5.32 6.68 -6 6 C-5.34 6 -4.68 6 -4 6 C-3.67 5.34 -3.34 4.68 -3 4 C-2.67 4.66 -2.34 5.32 -2 6 C-1.34 6 -0.68 6 0 6 C0 4.02 0 2.04 0 0 Z M2 7 C2 8.32 2 9.64 2 11 C2.99 10.67 3.98 10.34 5 10 C4.67 9.01 4.34 8.02 4 7 C3.34 7 2.68 7 2 7 Z M10 7 C10 8.32 10 9.64 10 11 C10.99 10.67 11.98 10.34 13 10 C12.67 9.01 12.34 8.02 12 7 C11.34 7 10.68 7 10 7 Z M-2 11 C-2 12.32 -2 13.64 -2 15 C-1.01 14.67 -0.02 14.34 1 14 C0.67 13.01 0.34 12.02 0 11 C-0.66 11 -1.32 11 -2 11 Z M6 11 C6 12.32 6 13.64 6 15 C6.99 14.67 7.98 14.34 9 14 C8.67 13.01 8.34 12.02 8 11 C7.34 11 6.68 11 6 11 Z M14 11 C14 12.32 14 13.64 14 15 C14.99 14.67 15.98 14.34 17 14 C16.67 13.01 16.34 12.02 16 11 C15.34 11 14.68 11 14 11 Z M22 11 C22 12.32 22 13.64 22 15 C22.99 14.67 23.98 14.34 25 14 C24.67 13.01 24.34 12.02 24 11 C23.34 11 22.68 11 22 11 Z M-6 15 C-6 16.32 -6 17.64 -6 19 C-5.01 18.67 -4.02 18.34 -3 18 C-3.33 17.01 -3.66 16.02 -4 15 C-4.66 15 -5.32 15 -6 15 Z M2 15 C2 16.32 2 17.64 2 19 C2.99 18.67 3.98 18.34 5 18 C4.67 17.01 4.34 16.02 4 15 C3.34 15 2.68 15 2 15 Z M10 15 C10 16.32 10 17.64 10 19 C10.99 18.67 11.98 18.34 13 18 C12.67 17.01 12.34 16.02 12 15 C11.34 15 10.68 15 10 15 Z M18 15 C18 16.32 18 17.64 18 19 C18.99 18.67 19.98 18.34 21 18 C20.67 17.01 20.34 16.02 20 15 C19.34 15 18.68 15 18 15 Z M26 15 C26 16.32 26 17.64 26 19 C26.99 18.67 27.98 18.34 29 18 C28.67 17.01 28.34 16.02 28 15 C27.34 15 26.68 15 26 15 Z M-10 19 C-10 20.32 -10 21.64 -10 23 C-9.01 22.67 -8.02 22.34 -7 22 C-7.33 21.01 -7.66 20.02 -8 19 C-8.66 19 -9.32 19 -10 19 Z M-2 19 C-2 20.32 -2 21.64 -2 23 C-1.01 22.67 -0.02 22.34 1 22 C0.67 21.01 0.34 20.02 0 19 C-0.66 19 -1.32 19 -2 19 Z M6 19 C6 20.32 6 21.64 6 23 C6.99 22.67 7.98 22.34 9 22 C8.67 21.01 8.34 20.02 8 19 C7.34 19 6.68 19 6 19 Z M14 19 C14 20.32 14 21.64 14 23 C14.99 22.67 15.98 22.34 17 22 C16.67 21.01 16.34 20.02 16 19 C15.34 19 14.68 19 14 19 Z M22 19 C22 20.32 22 21.64 22 23 C22.99 22.67 23.98 22.34 25 22 C24.67 21.01 24.34 20.02 24 19 C23.34 19 22.68 19 22 19 Z M30 19 C30 20.32 30 21.64 30 23 C30.99 22.67 31.98 22.34 33 22 C32.67 21.01 32.34 20.02 32 19 C31.34 19 30.68 19 30 19 Z M-6 23 C-6 24.32 -6 25.64 -6 27 C-5.01 26.67 -4.02 26.34 -3 26 C-3.33 25.01 -3.66 24.02 -4 23 C-4.66 23 -5.32 23 -6 23 Z M2 23 C2 24.32 2 25.64 2 27 C2.99 26.67 3.98 26.34 5 26 C4.67 25.01 4.34 24.02 4 23 C3.34 23 2.68 23 2 23 Z M10 23 C10 24.32 10 25.64 10 27 C10.99 26.67 11.98 26.34 13 26 C12.67 25.01 12.34 24.02 12 23 C11.34 23 10.68 23 10 23 Z M18 23 C18 24.32 18 25.64 18 27 C18.99 26.67 19.98 26.34 21 26 C20.67 25.01 20.34 24.02 20 23 C19.34 23 18.68 23 18 23 Z M26 23 C26 24.32 26 25.64 26 27 C26.99 26.67 27.98 26.34 29 26 C28.67 25.01 28.34 24.02 28 23 C27.34 23 26.68 23 26 23 Z M-10 27 C-10 28.32 -10 29.64 -10 31 C-9.01 30.67 -8.02 30.34 -7 30 C-7.33 29.01 -7.66 28.02 -8 27 C-8.66 27 -9.32 27 -10 27 Z M-2 27 C-2 28.32 -2 29.64 -2 31 C-1.01 30.67 -0.02 30.34 1 30 C0.67 29.01 0.34 28.02 0 27 C-0.66 27 -1.32 27 -2 27 Z M6 27 C6 28.32 6 29.64 6 31 C6.99 30.67 7.98 30.34 9 30 C8.67 29.01 8.34 28.02 8 27 C7.34 27 6.68 27 6 27 Z M14 27 C14 28.32 14 29.64 14 31 C14.99 30.67 15.98 30.34 17 30 C16.67 29.01 16.34 28.02 16 27 C15.34 27 14.68 27 14 27 Z M22 27 C22 28.32 22 29.64 22 31 C22.99 30.67 23.98 30.34 25 30 C24.67 29.01 24.34 28.02 24 27 C23.34 27 22.68 27 22 27 Z M30 27 C30 28.32 30 29.64 30 31 C30.99 30.67 31.98 30.34 33 30 C32.67 29.01 32.34 28.02 32 27 C31.34 27 30.68 27 30 27 Z M-6 31 C-6 32.32 -6 33.64 -6 35 C-5.01 34.67 -4.02 34.34 -3 34 C-3.33 33.01 -3.66 32.02 -4 31 C-4.66 31 -5.32 31 -6 31 Z M2 31 C2 32.32 2 33.64 2 35 C2.99 34.67 3.98 34.34 5 34 C4.67 33.01 4.34 32.02 4 31 C3.34 31 2.68 31 2 31 Z M10 31 C10 32.32 10 33.64 10 35 C10.99 34.67 11.98 34.34 13 34 C12.67 33.01 12.34 32.02 12 31 C11.34 31 10.68 31 10 31 Z M18 31 C18 32.32 18 33.64 18 35 C18.99 34.67 19.98 34.34 21 34 C20.67 33.01 20.34 32.02 20 31 C19.34 31 18.68 31 18 31 Z M26 31 C26 32.32 26 33.64 26 35 C26.99 34.67 27.98 34.34 29 34 C28.67 33.01 28.34 32.02 28 31 C27.34 31 26.68 31 26 31 Z M34 31 C34 32.32 34 33.64 34 35 C34.99 34.67 35.98 34.34 37 34 C36.67 33.01 36.34 32.02 36 31 C35.34 31 34.68 31 34 31 Z M-2 35 C-2 36.32 -2 37.64 -2 39 C-1.01 38.67 -0.02 38.34 1 38 C0.67 37.01 0.34 36.02 0 35 C-0.66 35 -1.32 35 -2 35 Z M6 35 C6 36.32 6 37.64 6 39 C6.99 38.67 7.98 38.34 9 38 C8.67 37.01 8.34 36.02 8 35 C7.34 35 6.68 35 6 35 Z M14 35 C14 36.32 14 37.64 14 39 C14.99 38.67 15.98 38.34 17 38 C16.67 37.01 16.34 36.02 16 35 C15.34 35 14.68 35 14 35 Z M22 35 C22 36.32 22 37.64 22 39 C22.99 38.67 23.98 38.34 25 38 C24.67 37.01 24.34 36.02 24 35 C23.34 35 22.68 35 22 35 Z M30 35 C30 36.32 30 37.64 30 39 C30.99 38.67 31.98 38.34 33 38 C32.67 37.01 32.34 36.02 32 35 C31.34 35 30.68 35 30 35 Z M-6 39 C-6 40.32 -6 41.64 -6 43 C-5.01 42.67 -4.02 42.34 -3 42 C-3.33 41.01 -3.66 40.02 -4 39 C-4.66 39 -5.32 39 -6 39 Z M2 39 C2 40.32 2 41.64 2 43 C2.99 42.67 3.98 42.34 5 42 C4.67 41.01 4.34 40.02 4 39 C3.34 39 2.68 39 2 39 Z M10 39 C10 40.32 10 41.64 10 43 C10.99 42.67 11.98 42.34 13 42 C12.67 41.01 12.34 40.02 12 39 C11.34 39 10.68 39 10 39 Z M18 39 C18 40.32 18 41.64 18 43 C18.99 42.67 19.98 42.34 21 42 C20.67 41.01 20.34 40.02 20 39 C19.34 39 18.68 39 18 39 Z M26 39 C26 40.32 26 41.64 26 43 C26.99 42.67 27.98 42.34 29 42 C28.67 41.01 28.34 40.02 28 39 C27.34 39 26.68 39 26 39 Z M6 43 C6 44.32 6 45.64 6 47 C6.99 46.67 7.98 46.34 9 46 C8.67 45.01 8.34 44.02 8 43 C7.34 43 6.68 43 6 43 Z M14 43 C14 44.32 14 45.64 14 47 C14.99 46.67 15.98 46.34 17 46 C16.67 45.01 16.34 44.02 16 43 C15.34 43 14.68 43 14 43 Z M22 43 C22 44.32 22 45.64 22 47 C22.99 46.67 23.98 46.34 25 46 C24.67 45.01 24.34 44.02 24 43 C23.34 43 22.68 43 22 43 Z M2 47 C2 48.32 2 49.64 2 51 C2.99 50.67 3.98 50.34 5 50 C4.67 49.01 4.34 48.02 4 47 C3.34 47 2.68 47 2 47 Z M10 47 C10 48.32 10 49.64 10 51 C10.99 50.67 11.98 50.34 13 50 C12.67 49.01 12.34 48.02 12 47 C11.34 47 10.68 47 10 47 Z M18 47 C18 48.32 18 49.64 18 51 C18.99 50.67 19.98 50.34 21 50 C20.67 49.01 20.34 48.02 20 47 C19.34 47 18.68 47 18 47 Z M22 51 C22 52.32 22 53.64 22 55 C22.99 54.67 23.98 54.34 25 54 C24.67 53.01 24.34 52.02 24 51 C23.34 51 22.68 51 22 51 Z M18 55 C18 56.32 18 57.64 18 59 C18.99 58.67 19.98 58.34 21 58 C20.67 57.01 20.34 56.02 20 55 C19.34 55 18.68 55 18 55 Z " fill="#828282" transform="translate(25,7)"/>
<path d="M0 0 C0.33 0 0.66 0 1 0 C1.2475 1.216875 1.495 2.43375 1.75 3.6875 C3.42556605 10.22909348 7.6079287 13.59989042 12.578125 17.83203125 C16.13186572 21.01320238 19.45607672 24.41248233 22.78710938 27.82446289 C24.88218121 29.95516755 26.88489013 31.91999864 29.34375 33.62890625 C29.8903125 34.08136719 30.436875 34.53382812 31 35 C31.25 38.6875 31.25 38.6875 31 42 C26.55350042 41.55964618 23.94223596 38.50291234 20.875 35.5625 C20.30168945 35.02407471 19.72837891 34.48564941 19.13769531 33.9309082 C15.59939094 30.58901221 12.15944353 27.16107099 8.75 23.6875 C3.44623586 18.32326949 -2.11004558 13.21325229 -9 10 C-8.071875 9.278125 -7.14375 8.55625 -6.1875 7.8125 C-3.4017848 5.51297094 -1.73274599 3.1919005 0 0 Z " fill="#373737" transform="translate(69,58)"/>
<path d="M0 0 C0.33 0 0.66 0 1 0 C1.2475 1.216875 1.495 2.43375 1.75 3.6875 C3.20569269 9.50001942 6.76839445 12.91952322 11 17 C3.47430873 18.87715655 3.47430873 18.87715655 -0.015625 16.80078125 C-1.8125 15.1875 -1.8125 15.1875 -3.39453125 13.54296875 C-5.13567488 11.86960686 -6.80457545 10.97627339 -9 10 C-8.071875 9.278125 -7.14375 8.55625 -6.1875 7.8125 C-3.4017848 5.51297094 -1.73274599 3.1919005 0 0 Z " fill="#505050" transform="translate(69,58)"/>
<path d="M0 0 C0.99 0 1.98 0 3 0 C3.33 0.66 3.66 1.32 4 2 C5.32 2 6.64 2 8 2 C8 3.32 8 4.64 8 6 C8.66 6.33 9.32 6.66 10 7 C10 7.99 10 8.98 10 10 C9.34 10 8.68 10 8 10 C8 11.32 8 12.64 8 14 C8.66 14.33 9.32 14.66 10 15 C10 15.99 10 16.98 10 18 C9.34 18 8.68 18 8 18 C8 17.34 8 16.68 8 16 C7.34 16 6.68 16 6 16 C6 13.36 6 10.72 6 8 C4.68 8 3.36 8 2 8 C2 6.68 2 5.36 2 4 C0.68 4 -0.64 4 -2 4 C-2 3.34 -2 2.68 -2 2 C-1.34 2 -0.68 2 0 2 C0 1.34 0 0.68 0 0 Z " fill="#898989" transform="translate(11,35)"/>
<path d="M0 0 C0.804375 0.495 0.804375 0.495 1.625 1 C4.5391061 2.22699204 6.86867708 2.14233286 10 2 C10 2.66 10 3.32 10 4 C8.68 4 7.36 4 6 4 C6 4.66 6 5.32 6 6 C6.66 6.66 7.32 7.32 8 8 C7.34 8 6.68 8 6 8 C5.67 8.66 5.34 9.32 5 10 C4.67 9.34 4.34 8.68 4 8 C2.02 8 0.04 8 -2 8 C-2.33 8.66 -2.66 9.32 -3 10 C-3.99 8.68 -4.98 7.36 -6 6 C-5.34 6 -4.68 6 -4 6 C-3.67 5.34 -3.34 4.68 -3 4 C-2.67 4.66 -2.34 5.32 -2 6 C-1.34 6 -0.68 6 0 6 C0 5.34 0 4.68 0 4 C-0.66 3.34 -1.32 2.68 -2 2 C-1.34 2 -0.68 2 0 2 C0 1.34 0 0.68 0 0 Z " fill="#707070" transform="translate(57,47)"/>
<path d="M0 0 C2 1.3125 2 1.3125 4 3 C4 3.99 4 4.98 4 6 C3.34 6 2.68 6 2 6 C2 7.32 2 8.64 2 10 C3.32 10.33 4.64 10.66 6 11 C2.71303767 11.79953138 1.28976808 12.09658936 -2 11 C-2 10.01 -2 9.02 -2 8 C-1.34 8 -0.68 8 0 8 C0 6.68 0 5.36 0 4 C-0.66 3.34 -1.32 2.68 -2 2 C-1.34 2 -0.68 2 0 2 C0 1.34 0 0.68 0 0 Z " fill="#8A8A8A" transform="translate(41,55)"/>
<path d="M0 0 C2 1.3125 2 1.3125 4 3 C4 3.99 4 4.98 4 6 C3.34 6 2.68 6 2 6 C2 6.66 2 7.32 2 8 C1.34 8 0.68 8 0 8 C0 8.66 0 9.32 0 10 C-0.66 10 -1.32 10 -2 10 C-2 10.66 -2 11.32 -2 12 C-2.66 12 -3.32 12 -4 12 C-4 10.68 -4 9.36 -4 8 C-4.66 7.34 -5.32 6.68 -6 6 C-4.02 6 -2.04 6 0 6 C0 4.02 0 2.04 0 0 Z " fill="#8A8A8A" transform="translate(13,19)"/>
<path d="M0 0 C0.99 0 1.98 0 3 0 C3.33 0.66 3.66 1.32 4 2 C5.32 2 6.64 2 8 2 C8 2.66 8 3.32 8 4 C7.34 4 6.68 4 6 4 C6 4.66 6 5.32 6 6 C5.34 6 4.68 6 4 6 C4 6.66 4 7.32 4 8 C3.34 8 2.68 8 2 8 C2 6.68 2 5.36 2 4 C0.68 4 -0.64 4 -2 4 C-2 3.34 -2 2.68 -2 2 C-1.34 2 -0.68 2 0 2 C0 1.34 0 0.68 0 0 Z " fill="#949494" transform="translate(11,35)"/>
<path d="M0 0 C3 0 3 0 4.6875 1.3125 C6 3 6 3 6 6 C4.02 6.99 4.02 6.99 2 8 C2 6.68 2 5.36 2 4 C0.68 4 -0.64 4 -2 4 C-2 3.34 -2 2.68 -2 2 C-1.34 2 -0.68 2 0 2 C0 1.34 0 0.68 0 0 Z " fill="#979797" transform="translate(55,55)"/>
<path d="M0 0 C2 1.3125 2 1.3125 4 3 C4 3.99 4 4.98 4 6 C3.34 6 2.68 6 2 6 C2 6.66 2 7.32 2 8 C1.34 8 0.68 8 0 8 C0 5.36 0 2.72 0 0 Z " fill="#8A8A8A" transform="translate(25,7)"/>
</svg>
